<svg xmlns="http://www.w3.org/2000/svg" viewBox="0 0 96 85"><defs><style>.cls-1{fill:none;stroke:#5a5e61;stroke-width:4px;}.cls-2{fill:#5a5e61;}</style></defs><title>资源 1</title><g id="图层_2" data-name="图层 2"><g id="展示数据"><rect id="圆角矩形_1" data-name="圆角矩形 1" class="cls-1" x="2" y="2" width="92" height="81" rx="10" ry="10"/><g id="组_2_拷贝_3" data-name="组 2 拷贝 3"><rect id="矩形_1" data-name="矩形 1" class="cls-2" x="15" y="65" width="6" height="6"/><rect id="矩形_1_拷贝" data-name="矩形 1 拷贝" class="cls-2" x="26" y="65" width="56" height="6" rx="2" ry="2"/></g><path class="cls-2" d="M66.47,35.22a3.39,3.39,0,0,1-.15.45c0,.07-.1.11-.14.17a3,3,0,0,1-.39.47,2.31,2.31,0,0,1-.4.37c-.06,0-.1.12-.17.17L40.74,51.91a4.51,4.51,0,0,1-2.23,1h0l-.07,0A2.79,2.79,0,0,1,36.27,52l0,0a2.85,2.85,0,0,1-.49-.59c0-.08,0-.17-.08-.25a3,3,0,0,1-.16-.51,3.09,3.09,0,0,1-.12-.59c0-.09,0-.16,0-.24V18.52a3.37,3.37,0,0,1,.34-1.64,2.91,2.91,0,0,1,2.54-1.52c.09,0,.16,0,.26,0a.45.45,0,0,1,.11,0h0a3.1,3.1,0,0,1,2.19,1.06l24.43,15a2.39,2.39,0,0,1,.23.22.83.83,0,0,1,.14.13,3.16,3.16,0,0,1,.66.79l0,0a.38.38,0,0,1,0,.1,3.3,3.3,0,0,1,.31,1c0,.1,0,.18,0,.27a3.19,3.19,0,0,1-.06.87,3.06,3.06,0,0,1-.13.43ZM39.72,20.51V47.76L61.9,34.11Z"/></g></g></svg>